<svg width="512" height="512" viewBox="0 0 512 512" fill="none" xmlns="http://www.w3.org/2000/svg">
<g clip-path="url(#clip0_1_5185)">
<path d="M498 498H100.044C69.9259 498 54.8668 498 43.3632 492.138C33.2441 486.984 25.0172 478.756 19.8615 468.637C14 457.134 14 442.074 14 411.956V14M100 462L220 334L324 398L444 270" stroke="#24C8DB" stroke-width="24" stroke-linecap="round" stroke-linejoin="round"/>
<path d="M421.242 128.31C406.867 72.0468 385.547 36.1567 351.375 27.4107C344.757 25.7392 337.894 24.9053 331 24.9351C309.992 24.9351 293.414 35.7576 256 35.7576C218.586 35.7576 201.977 24.9351 181 24.9351C173.818 24.9029 166.666 25.7361 159.75 27.4107C125.531 36.1567 104.391 72.0806 89.8516 128.31C75.0078 185.744 77.6953 231.124 106.711 239.836C127.023 245.924 145.187 233.336 162.391 214.809C181.922 193.705 205.977 187.212 256 187.212C306.023 187.212 329.141 193.705 348.703 214.809C365.891 233.35 384.727 245.782 404.5 239.945C436.547 230.468 436.094 186.42 421.242 128.31Z" stroke="#FFC131" stroke-width="24" stroke-miterlimit="10"/>
<path d="M284.125 125.043C292.754 125.043 299.75 118.987 299.75 111.515C299.75 104.044 292.754 97.987 284.125 97.987C275.496 97.987 268.5 104.044 268.5 111.515C268.5 118.987 275.496 125.043 284.125 125.043Z" fill="#FFC131"/>
<path d="M318.5 154.805C315.408 154.805 312.386 154.011 309.815 152.523C307.245 151.035 305.242 148.92 304.061 146.446C302.879 143.972 302.572 141.251 303.178 138.625C303.784 136 305.276 133.59 307.465 131.699C309.654 129.809 312.442 128.523 315.476 128.005C318.509 127.487 321.652 127.759 324.507 128.788C327.361 129.818 329.799 131.557 331.511 133.786C333.223 136.015 334.133 138.634 334.125 141.311C334.115 144.893 332.464 148.325 329.535 150.855C326.606 153.385 322.637 154.805 318.5 154.805Z" fill="#FFC131"/>
<path d="M318.5 95.2814C327.129 95.2814 334.125 89.2246 334.125 81.7533C334.125 74.2819 327.129 68.2251 318.5 68.2251C309.871 68.2251 302.875 74.2819 302.875 81.7533C302.875 89.2246 309.871 95.2814 318.5 95.2814Z" fill="#FFC131"/>
<path d="M352.875 125.043C361.504 125.043 368.5 118.987 368.5 111.515C368.5 104.044 361.504 97.987 352.875 97.987C344.246 97.987 337.25 104.044 337.25 111.515C337.25 118.987 344.246 125.043 352.875 125.043Z" fill="#FFC131"/>
<path d="M181 79.0476V143.983" stroke="#FFC131" stroke-width="24" stroke-linecap="round" stroke-linejoin="round"/>
<path d="M218.5 111.515H143.5" stroke="#FFC131" stroke-width="24" stroke-linecap="round" stroke-linejoin="round"/>
</g>
<defs>
<clipPath id="clip0_1_5185">
<rect width="512" height="512" fill="white"/>
</clipPath>
</defs>
</svg>
